<?xml version="1.0" encoding="UTF-8"?>
<svg version="1.1" xmlns="http://www.w3.org/2000/svg" width="150" height="134">
<path d="M0 0 C6.64492511 2.36354163 12.28259464 9.18322357 17.32678223 13.92619324 C18.03173828 14.5846524 18.73669434 15.24311157 19.4630127 15.92152405 C26.66929782 22.82105007 33.19817568 29.08095959 33.56115723 39.51213074 C33.5839766 43.7116508 33.12311807 47.72815418 32.37072754 51.85466003 C31.46875627 56.3402416 31.46875627 56.3402416 32.07678223 60.73869324 C37.15309358 61.19626911 41.49818346 59.76655621 46.07678223 57.73869324 C48.24416518 55.46922744 48.98140217 54.05418112 49.88928223 51.05119324 C50.28115723 50.28806824 50.67303223 49.52494324 51.07678223 48.73869324 C54.01428223 47.98869324 54.01428223 47.98869324 57.07678223 47.73869324 C58.06678223 47.40869324 59.05678223 47.07869324 60.07678223 46.73869324 C59.82462555 50.68914788 59.09352704 53.6937867 57.70178223 57.42619324 C56.35398322 62.46578953 58.65323737 66.21220732 60.74475098 70.75822449 C62.55863677 74.81686043 63.57742765 78.3158384 64.07678223 82.73869324 C60.4690208 85.28534836 56.34116404 85.46074992 52.07678223 84.73869324 C49.26428223 82.80119324 49.26428223 82.80119324 47.07678223 80.73869324 C45.59178223 80.24369324 45.59178223 80.24369324 44.07678223 79.73869324 C44.53564066 77.24730751 45.10629388 75.0672293 45.88928223 72.67619324 C46.19575684 71.68135925 46.19575684 71.68135925 46.50842285 70.66642761 C47.01785493 69.0196588 47.54566512 67.37859665 48.07678223 65.73869324 C47.17314941 66.02744324 46.2695166 66.31619324 45.33850098 66.61369324 C44.15900879 66.98494324 42.9795166 67.35619324 41.76428223 67.73869324 C40.00664551 68.29556824 40.00664551 68.29556824 38.21350098 68.86369324 C35.07678223 69.73869324 35.07678223 69.73869324 32.07678223 69.73869324 C32.18942598 72.46618769 32.18942598 72.46618769 32.87365723 75.86759949 C34.36139087 86.69776618 35.76672573 97.98585911 29.11193848 107.36027527 C25.35945386 112.04628626 21.19103018 116.25037075 16.82678223 120.36369324 C16.10212769 121.05093475 15.37747314 121.73817627 14.63085938 122.44624329 C12.53140838 124.40375434 10.40502531 126.32073099 8.24865723 128.21525574 C7.59107422 128.79380814 6.93349121 129.37236053 6.25598145 129.96844482 C4.37658691 131.53019714 4.37658691 131.53019714 1.07678223 133.73869324 C-3.55340918 133.29448499 -6.01289456 129.94387639 -9.04821777 126.73869324 C-12.61234462 122.75880327 -12.61234462 122.75880327 -16.92321777 119.73869324 C-16.92321777 119.07869324 -16.92321777 118.41869324 -16.92321777 117.73869324 C-17.58321777 117.73869324 -18.24321777 117.73869324 -18.92321777 117.73869324 C-18.92321777 117.07869324 -18.92321777 116.41869324 -18.92321777 115.73869324 C-19.58321777 115.73869324 -20.24321777 115.73869324 -20.92321777 115.73869324 C-20.92321777 115.07869324 -20.92321777 114.41869324 -20.92321777 113.73869324 C-21.50458496 113.45509949 -22.08595215 113.17150574 -22.68493652 112.87931824 C-25.42190978 111.48456049 -26.76192339 109.84011692 -28.73571777 107.48869324 C-32.54184751 103.15032422 -36.54665777 99.20093876 -40.79821777 95.30119324 C-47.07496554 89.49652878 -53.29413081 83.63683594 -59.42321777 77.67619324 C-60.70688232 76.46201721 -60.70688232 76.46201721 -62.01647949 75.22331238 C-62.80039062 74.4536615 -63.58430176 73.68401062 -64.39196777 72.89103699 C-65.09772949 72.21033142 -65.80349121 71.52962585 -66.53063965 70.82829285 C-67.92321777 68.73869324 -67.92321777 68.73869324 -67.90588379 66.26774597 C-66.68804097 63.13342702 -65.13073098 61.47567569 -62.73181152 59.12150574 C-61.86878418 58.2668573 -61.00575684 57.41220886 -60.11657715 56.53166199 C-59.20714355 55.6512323 -58.29770996 54.77080261 -57.36071777 53.86369324 C-56.47835449 52.99099792 -55.59599121 52.11830261 -54.68688965 51.21916199 C-50.11991471 46.72982225 -45.48380872 42.37790328 -40.58703613 38.24967957 C-38.88857753 36.70723492 -37.48065859 35.09064317 -36.04821777 33.30119324 C-35.34696777 32.45556824 -34.64571777 31.60994324 -33.92321777 30.73869324 C-33.26321777 30.73869324 -32.60321777 30.73869324 -31.92321777 30.73869324 C-31.92321777 30.07869324 -31.92321777 29.41869324 -31.92321777 28.73869324 C-31.26321777 28.73869324 -30.60321777 28.73869324 -29.92321777 28.73869324 C-29.92321777 28.07869324 -29.92321777 27.41869324 -29.92321777 26.73869324 C-29.26321777 26.73869324 -28.60321777 26.73869324 -27.92321777 26.73869324 C-27.92321777 26.07869324 -27.92321777 25.41869324 -27.92321777 24.73869324 C-26.49841309 23.34611511 -26.49841309 23.34611511 -24.50134277 21.70744324 C-21.27852367 18.97017661 -18.27851746 16.12821185 -15.34509277 13.08244324 C-14.57681152 12.28838074 -13.80853027 11.49431824 -13.01696777 10.67619324 C-11.43133216 9.0271322 -9.85339213 7.37064255 -8.28259277 5.70744324 C-7.51946777 4.92369324 -6.75634277 4.13994324 -5.97009277 3.33244324 C-4.94673828 2.2602655 -4.94673828 2.2602655 -3.90270996 1.16642761 C-1.92321777 -0.26130676 -1.92321777 -0.26130676 0 0 Z M-6.48449707 12.0912323 C-7.35272598 12.94478554 -7.35272598 12.94478554 -8.23849487 13.81558228 C-10.16144967 15.70850805 -12.08003628 17.60576688 -13.99743652 19.50431824 C-14.64993692 20.15024681 -15.30243732 20.79617538 -15.97471046 21.46167755 C-19.4253723 24.87971738 -22.87193894 28.30183665 -26.31604004 31.72648621 C-29.17647613 34.56907716 -32.04517823 37.40291064 -34.92150879 40.22941589 C-38.38529783 43.63326078 -41.83436459 47.05137054 -45.27317238 50.48044586 C-46.58987824 51.78855375 -47.91173994 53.09149217 -49.2386837 54.38921356 C-51.0900638 56.20198523 -52.92192625 58.03246756 -54.75012207 59.86857605 C-55.30743515 60.40588852 -55.86474823 60.94320099 -56.43894958 61.49679565 C-58.11436133 63.13265891 -58.11436133 63.13265891 -59.92321777 65.73869324 C-58.57271265 71.2844358 -52.45334593 75.58042785 -48.48278809 79.54972839 C-46.91791066 81.11901531 -45.36974155 82.70364197 -43.82165527 84.28947449 C-42.83565611 85.28133508 -41.84870983 86.27225525 -40.86071777 87.26213074 C-39.51300293 88.62217224 -39.51300293 88.62217224 -38.13806152 90.00968933 C-37.40716309 90.58026062 -36.67626465 91.15083191 -35.92321777 91.73869324 C-32.66249295 88.47796842 -32.83807325 83.65517714 -32.24353027 79.21134949 C-31.47219864 74.18892876 -30.29129339 70.72514994 -26.92321777 66.73869324 C-24.59899902 65.34806824 -24.59899902 65.34806824 -22.23571777 64.48869324 C-18.868426 63.43414751 -18.868426 63.43414751 -16.92321777 60.73869324 C-15.58988444 60.07202657 -14.25655111 59.4053599 -12.92321777 58.73869324 C-12.42821777 57.74869324 -12.42821777 57.74869324 -11.92321777 56.73869324 C-12.87196777 56.69744324 -13.82071777 56.65619324 -14.79821777 56.61369324 C-15.82946777 56.32494324 -16.86071777 56.03619324 -17.92321777 55.73869324 C-19.20693662 51.28343372 -19.60399741 49.07065339 -17.48571777 44.92619324 C-15.8011846 41.48974557 -15.79804872 39.92125142 -15.92321777 36.17619324 C-16.03603 31.80026629 -15.98857639 29.12115792 -12.92321777 25.73869324 C-9.20043393 22.56337761 -5.7481178 22.20982851 -1.01306152 22.39103699 C1.07678223 22.73869324 1.07678223 22.73869324 3.57678223 24.36369324 C5.4093675 27.26528658 5.93404342 29.31296193 6.07678223 32.73869324 C5.64365723 33.39869324 5.21053223 34.05869324 4.76428223 34.73869324 C4.53740723 35.39869324 4.31053223 36.05869324 4.07678223 36.73869324 C5.4862674 38.38691857 7.0538827 39.76738752 8.67053223 41.21134949 C10.07678223 42.73869324 10.07678223 42.73869324 10.45178223 45.61369324 C10.26615723 46.66556824 10.26615723 46.66556824 10.07678223 47.73869324 C8.09678223 46.41869324 6.11678223 45.09869324 4.07678223 43.73869324 C4.57476593 47.47357101 4.95169979 49.55106958 7.07678223 52.73869324 C7.73678223 52.40869324 8.39678223 52.07869324 9.07678223 51.73869324 C8.74678223 50.74869324 8.41678223 49.75869324 8.07678223 48.73869324 C10.96288155 50.16530726 13.64396419 51.61588873 16.07678223 53.73869324 C16.20053223 54.99681824 16.32428223 56.25494324 16.45178223 57.55119324 C16.65803223 58.60306824 16.86428223 59.65494324 17.07678223 60.73869324 C20.57512587 61.95261504 23.63472855 62.1741332 27.07678223 60.73869324 C28.5085751 56.38243319 27.90281957 52.06420393 27.51428223 47.55119324 C27.46336426 46.30531433 27.41244629 45.05943542 27.35998535 43.77580261 C27.00302481 36.74731889 27.00302481 36.74731889 23.77600098 30.70353699 C22.88525879 30.05513855 21.9945166 29.40674011 21.07678223 28.73869324 C18.75055621 26.12651917 16.45383237 23.49105825 14.16271973 20.84806824 C12.17524953 18.52029159 12.17524953 18.52029159 9.07678223 17.73869324 C8.3752707 16.42335913 7.71152297 15.08751732 7.07678223 13.73869324 C5.66010752 11.98753594 5.66010752 11.98753594 4.07678223 10.73869324 C3.41678223 10.73869324 2.75678223 10.73869324 2.07678223 10.73869324 C1.37740691 9.42222205 0.70949089 8.08847173 0.07678223 6.73869324 C-2.25086413 6.73869324 -4.83138134 10.45560315 -6.48449707 12.0912323 Z M-13.92321777 40.73869324 C-13.59321777 42.71869324 -13.26321777 44.69869324 -12.92321777 46.73869324 C-12.26321777 46.07869324 -11.60321777 45.41869324 -10.92321777 44.73869324 C-12.24659063 42.58528794 -12.24659063 42.58528794 -13.92321777 40.73869324 Z M-7.92321777 45.73869324 C-6.82279859 47.42551062 -6.82279859 47.42551062 -4.92321777 48.73869324 C-1.77399868 48.50586175 -1.77399868 48.50586175 1.07678223 47.73869324 C-0.87955753 45.32747465 -0.87955753 45.32747465 -4.54821777 45.61369324 C-6.21884277 45.67556824 -6.21884277 45.67556824 -7.92321777 45.73869324 Z M2.07678223 52.73869324 C0.70231729 57.19055421 0.70231729 57.19055421 1.07678223 61.73869324 C4.78275977 62.66822531 8.31778916 62.22585874 12.07678223 61.73869324 C11.46061035 61.46025574 10.84443848 61.18181824 10.20959473 60.89494324 C7.38892109 59.36578683 5.98640244 57.28485352 4.07678223 54.73869324 C3.41678223 54.07869324 2.75678223 53.41869324 2.07678223 52.73869324 Z M20.07678223 66.73869324 C15.59196156 70.95170659 15.17828443 74.67481502 14.88928223 80.55119324 C14.95115723 81.60306824 15.01303223 82.65494324 15.07678223 83.73869324 C15.73678223 83.73869324 16.39678223 83.73869324 17.07678223 83.73869324 C16.60675655 85.68594249 16.12601786 87.63148929 15.58068848 89.55900574 C14.93871288 91.93432384 14.93871288 91.93432384 15.13928223 95.23869324 C15.11865723 96.06369324 15.09803223 96.88869324 15.07678223 97.73869324 C14.08678223 97.73869324 13.09678223 97.73869324 12.07678223 97.73869324 C11.67053223 95.87541199 11.67053223 95.87541199 11.57678223 93.42619324 C11.4964321 89.95042538 11.4964321 89.95042538 9.67053223 87.13322449 C9.14459473 86.67302917 8.61865723 86.21283386 8.07678223 85.73869324 C7.41678223 84.74869324 6.75678223 83.75869324 6.07678223 82.73869324 C2.90659814 82.15340547 2.90659814 82.15340547 0.07678223 82.73869324 C1.15699438 85.76196993 3.00895998 88.06934121 5.07678223 90.48869324 C5.59240723 91.10228699 6.10803223 91.71588074 6.63928223 92.34806824 C7.98301474 93.970457 7.98301474 93.970457 10.07678223 93.73869324 C9.74678223 94.39869324 9.41678223 95.05869324 9.07678223 95.73869324 C6.01428223 94.86369324 6.01428223 94.86369324 3.07678223 93.73869324 C3.67490723 94.33681824 4.27303223 94.93494324 4.88928223 95.55119324 C5.61115723 96.27306824 6.33303223 96.99494324 7.07678223 97.73869324 C7.69553223 98.29556824 8.31428223 98.85244324 8.95178223 99.42619324 C9.32303223 99.85931824 9.69428223 100.29244324 10.07678223 100.73869324 C9.08678223 101.23369324 9.08678223 101.23369324 8.07678223 101.73869324 C8.73678223 102.39869324 9.39678223 103.05869324 10.07678223 103.73869324 C4.51408317 104.71460535 0.35250467 105.22724156 -4.92321777 102.73869324 C-6.5168508 100.71679707 -7.75996591 98.68487716 -8.97790527 96.41838074 C-9.2898584 95.86408386 -9.60181152 95.30978699 -9.92321777 94.73869324 C-10.25321777 94.73869324 -10.58321777 94.73869324 -10.92321777 94.73869324 C-11.44471671 98.47610226 -11.27647234 100.22708318 -9.11071777 103.36369324 C-4.1892098 107.03069918 1.86024636 109.73869324 8.07678223 109.73869324 C7.82928223 110.60494324 7.58178223 111.47119324 7.32678223 112.36369324 C7.20303223 113.53931824 7.20303223 113.53931824 7.07678223 114.73869324 C10.60778273 114.29003104 10.60778273 114.29003104 14.07678223 112.73869324 C14.07678223 112.07869324 14.07678223 111.41869324 14.07678223 110.73869324 C15.39243862 110.03778635 16.73018243 109.37813926 18.07678223 108.73869324 C22.57963332 105.7140876 25.63864116 102.81201779 26.7857666 97.38371277 C27.00751685 93.49342005 26.97219105 89.69470584 26.82678223 85.80119324 C26.82094608 84.44898978 26.81831609 83.0967685 26.81896973 81.74455261 C26.78473223 76.70306565 26.78473223 76.70306565 26.07678223 71.73869324 C24.12807011 70.92919766 24.12807011 70.92919766 22.07678223 70.73869324 C21.58178223 69.56306824 21.58178223 69.56306824 21.07678223 68.36369324 C20.74678223 67.82744324 20.41678223 67.29119324 20.07678223 66.73869324 Z M-23.92321777 79.73869324 C-24.64309212 82.1502723 -25.30155266 84.55158578 -25.92321777 86.98869324 C-26.1011084 87.6706073 -26.27899902 88.35252136 -26.46228027 89.05509949 C-26.95485007 90.9481849 -27.43930697 92.84337593 -27.92321777 94.73869324 C-28.15895508 95.4107782 -28.39469238 96.08286316 -28.63757324 96.77531433 C-28.73183594 97.42322937 -28.82609863 98.07114441 -28.92321777 98.73869324 C-27.02773251 101.08576747 -25.21638607 103.05223569 -23.04821777 105.11369324 C-22.47974121 105.68474792 -21.91126465 106.25580261 -21.32556152 106.84416199 C-19.92361119 108.21281183 -18.43080418 109.48735381 -16.92321777 110.73869324 C-15.63277029 108.72902784 -15.63277029 108.72902784 -16.63024902 106.38322449 C-16.99505371 105.44865417 -17.3598584 104.51408386 -17.73571777 103.55119324 C-19.34861704 99.30965884 -20.75457281 95.12111187 -21.92321777 90.73869324 C-20.93321777 91.06869324 -19.94321777 91.39869324 -18.92321777 91.73869324 C-19.18997981 89.75377682 -19.18997981 89.75377682 -19.92321777 87.73869324 C-20.25321777 88.39869324 -20.58321777 89.05869324 -20.92321777 89.73869324 C-21.58321777 89.73869324 -22.24321777 89.73869324 -22.92321777 89.73869324 C-23.08337402 87.55119324 -23.08337402 87.55119324 -22.98571777 84.73869324 C-22.93250002 83.07274616 -22.90238444 81.4053599 -22.92321777 79.73869324 C-23.25321777 79.73869324 -23.58321777 79.73869324 -23.92321777 79.73869324 Z M-18.92321777 91.73869324 C-18.47492083 95.66129151 -17.24513753 98.54605357 -14.92321777 101.73869324 C-14.59321777 101.07869324 -14.26321777 100.41869324 -13.92321777 99.73869324 C-14.6513197 97.71877492 -14.6513197 97.71877492 -15.79821777 95.61369324 C-16.16688965 94.88924011 -16.53556152 94.16478699 -16.91540527 93.41838074 C-17.2479834 92.86408386 -17.58056152 92.30978699 -17.92321777 91.73869324 C-18.25321777 91.73869324 -18.58321777 91.73869324 -18.92321777 91.73869324 Z M-11.92321777 92.73869324 C-10.92321777 94.73869324 -10.92321777 94.73869324 -10.92321777 94.73869324 Z M-0.92321777 94.73869324 C1.43090989 97.34284038 1.43090989 97.34284038 4.07678223 99.73869324 C4.73678223 99.40869324 5.39678223 99.07869324 6.07678223 98.73869324 C3.03885945 95.70228233 3.03885945 95.70228233 -0.92321777 94.73869324 Z M-13.92321777 101.73869324 C-13.59321777 102.72869324 -13.26321777 103.71869324 -12.92321777 104.73869324 C-12.92321777 103.74869324 -12.92321777 102.75869324 -12.92321777 101.73869324 C-13.25321777 101.73869324 -13.58321777 101.73869324 -13.92321777 101.73869324 Z " fill="#292F71" transform="translate(67.9232177734375,0.2613067626953125)"/>
<path d="M0 0 C0.66 0 1.32 0 2 0 C3.70895138 3.71864001 4.85136859 7.67634905 6.125 11.5625 C6.68380859 13.19155273 6.68380859 13.19155273 7.25390625 14.85351562 C10.69152891 25.21045568 10.69152891 25.21045568 10 31 C7.56730132 33.33133624 5.42812987 33.03630921 2.0625 33.25 C-1.31768189 33.16154664 -4.00457186 32.68492833 -7 31 C-7 30.34 -7 29.68 -7 29 C-7.66 28.67 -8.32 28.34 -9 28 C-8.35546875 25.19921875 -8.35546875 25.19921875 -7.1875 21.6875 C-5.44683504 16.38520091 -5.44683504 16.38520091 -4 11 C-3.51042252 9.26785357 -3.00997112 7.53875225 -2.5 5.8125 C-2.2421875 4.93207031 -1.984375 4.05164062 -1.71875 3.14453125 C-1 1 -1 1 0 0 Z " fill="#292F71" transform="translate(140,43)"/>
<path d="M0 0 C3.0625 0.3125 3.0625 0.3125 6 1 C6 1.66 6 2.32 6 3 C6.66 3 7.32 3 8 3 C7.25 5.5 7.25 5.5 6 8 C5.34 8 4.68 8 4 8 C3.14756164 9.8976482 3.14756164 9.8976482 2.5 12.25 C-0.09954247 20.8963043 -0.09954247 20.8963043 -4.4375 23.3125 C-8 25 -8 25 -11 24 C-10.3046875 21.48828125 -10.3046875 21.48828125 -8.875 18.3125 C-8.39160156 17.22453125 -7.90820312 16.1365625 -7.41015625 15.015625 C-5.99171356 11.9822794 -4.5265445 8.98039641 -3 6 C-2.62875 5.071875 -2.2575 4.14375 -1.875 3.1875 C-1 1 -1 1 0 0 Z " fill="#292F71" transform="translate(131,23)"/>
</svg>